<?xml version="1.0" standalone="no"?>
<!DOCTYPE svg PUBLIC "-//W3C//DTD SVG 20010904//EN"
 "http://www.w3.org/TR/2001/REC-SVG-20010904/DTD/svg10.dtd">
<svg version="1.0" xmlns="http://www.w3.org/2000/svg"
 width="700.000000pt" height="700.000000pt" viewBox="0 0 700.000000 700.000000"
 preserveAspectRatio="xMidYMid meet">
<metadata>
Created by potrace 1.14, written by Peter Selinger 2001-2017
</metadata>
<g transform="translate(0.000000,700.000000) scale(0.100000,-0.100000)"
fill="#000000" stroke="none">
<path d="M3469 6339 c-42 -6 -100 -34 -259 -122 -25 -13 -97 -51 -160 -85 -63
-33 -142 -74 -175 -92 -33 -18 -96 -51 -140 -75 -44 -24 -109 -58 -145 -78
-36 -19 -101 -53 -145 -77 -44 -23 -111 -59 -150 -80 -38 -20 -108 -57 -155
-82 -47 -25 -116 -62 -155 -83 -38 -21 -113 -60 -165 -87 -52 -28 -99 -54
-105 -58 -5 -4 -77 -42 -160 -85 -82 -43 -163 -86 -180 -95 -16 -9 -68 -37
-115 -62 -363 -194 -527 -282 -605 -323 -49 -26 -121 -64 -160 -85 -38 -21
-140 -75 -225 -120 -188 -100 -205 -112 -235 -161 -32 -50 -40 -106 -25 -170
16 -64 69 -121 150 -161 30 -15 93 -48 140 -73 129 -70 265 -143 360 -193 47
-25 90 -49 95 -54 6 -6 10 -258 11 -716 0 -624 2 -713 17 -762 17 -57 65 -144
107 -194 133 -158 286 -313 400 -406 30 -25 57 -47 60 -50 15 -15 137 -104
215 -157 181 -122 355 -215 561 -301 101 -43 175 -68 412 -143 18 -6 45 -12
60 -15 15 -3 33 -7 41 -9 16 -6 130 -29 216 -45 33 -5 71 -12 85 -15 13 -3 56
-7 95 -11 38 -3 73 -8 76 -10 12 -7 244 -17 384 -18 137 0 392 11 404 18 3 2
33 6 66 10 33 4 74 8 92 11 52 7 267 46 274 50 3 2 17 6 31 9 97 17 382 110
521 170 l37 16 1 -27 c0 -16 0 -210 1 -432 0 -222 4 -417 9 -434 25 -87 118
-157 209 -157 71 0 148 43 185 104 l30 49 3 566 3 566 62 40 c67 43 247 177
305 228 45 39 311 305 333 333 8 11 34 44 58 74 49 63 84 127 101 190 10 34
13 220 14 755 l1 710 145 78 c80 43 201 108 270 144 293 154 304 162 335 246
32 87 4 187 -68 241 -30 22 -71 45 -262 146 -82 44 -151 81 -265 142 -36 19
-114 61 -175 93 -60 32 -132 70 -160 85 -27 15 -90 49 -140 75 -49 26 -117 62
-150 80 -33 18 -100 54 -150 80 -49 26 -119 63 -155 83 -187 101 -293 158
-425 227 -118 62 -210 111 -290 155 -27 15 -104 56 -170 90 -111 58 -172 90
-300 160 -27 15 -95 51 -150 80 -124 65 -235 124 -300 160 -248 136 -284 150
-356 139z m341 -627 c36 -19 92 -49 125 -67 33 -18 105 -56 160 -85 55 -29
123 -65 150 -80 28 -15 91 -49 140 -75 50 -26 122 -65 160 -85 120 -65 220
-118 460 -245 61 -32 133 -70 160 -85 28 -15 91 -49 140 -75 50 -26 117 -62
150 -80 33 -18 105 -56 160 -85 55 -30 134 -72 175 -95 41 -22 95 -51 120 -64
25 -12 68 -35 95 -50 28 -15 104 -55 170 -90 66 -35 124 -67 128 -71 8 -7 -6
-17 -73 -52 -14 -7 -140 -74 -280 -149 -140 -75 -304 -162 -365 -194 -60 -32
-132 -70 -160 -85 -27 -15 -86 -47 -130 -70 -44 -23 -96 -52 -117 -63 l-36
-20 -169 90 c-92 50 -208 112 -258 138 -49 26 -112 60 -140 75 -27 15 -93 50
-145 77 -52 28 -265 142 -473 253 -270 144 -392 204 -426 209 -169 27 -300
-149 -227 -305 13 -27 32 -57 42 -66 17 -15 252 -148 261 -148 2 0 57 -29 121
-64 64 -35 171 -92 237 -126 66 -35 125 -66 130 -70 6 -4 73 -40 150 -80 77
-41 174 -92 215 -115 41 -22 105 -56 142 -75 36 -19 65 -38 62 -41 -4 -7 -104
-62 -279 -154 -49 -26 -128 -68 -175 -93 -222 -120 -268 -145 -305 -163 -22
-11 -60 -31 -85 -45 -166 -93 -328 -172 -336 -165 -5 5 -54 32 -109 61 -55 29
-152 81 -215 115 -63 34 -169 90 -235 125 -66 34 -133 70 -150 80 -16 9 -79
43 -140 75 -60 32 -132 70 -160 85 -27 15 -99 53 -160 85 -60 32 -123 65 -140
75 -29 17 -79 43 -300 160 -108 57 -353 188 -897 479 -125 66 -231 121 -235
121 -4 0 -19 9 -32 19 l-23 18 108 58 c60 32 136 72 169 90 33 18 110 58 170
90 61 32 133 70 160 85 79 43 183 98 430 230 127 68 257 137 290 155 215 115
243 130 485 258 52 27 109 58 125 67 17 10 82 45 145 78 63 33 131 68 150 79
19 11 89 48 155 83 66 34 134 71 150 80 17 10 80 43 140 75 61 32 114 61 119
66 9 8 83 -29 326 -159z m-2565 -2132 c6 -4 64 -35 130 -70 66 -35 176 -93
245 -130 115 -62 173 -93 380 -202 41 -22 98 -53 125 -68 28 -15 95 -51 150
-80 175 -92 398 -211 450 -240 28 -15 95 -51 150 -80 55 -29 133 -70 173 -91
39 -22 107 -58 150 -80 42 -23 106 -58 142 -77 35 -20 84 -41 109 -48 85 -21
82 -22 666 291 33 18 103 55 155 83 52 27 218 116 369 196 151 81 276 144 279
142 3 -4 6 -1116 2 -1337 0 -36 -1 -36 -102 -84 -141 -66 -274 -116 -408 -155
-41 -11 -88 -25 -105 -30 -43 -13 -173 -41 -220 -46 -21 -3 -42 -7 -45 -9 -4
-2 -35 -7 -71 -11 -35 -3 -67 -8 -70 -10 -28 -16 -498 -24 -674 -11 -107 8
-122 10 -260 32 -127 21 -135 23 -244 49 -301 73 -641 221 -891 389 -210 140
-436 339 -567 499 l-58 71 -1 563 c-1 597 -2 574 41 544z m4551 -556 l-1 -551
-48 -59 c-85 -103 -252 -269 -349 -346 l-38 -30 0 665 0 665 103 55 c56 30
147 78 202 107 55 29 104 57 110 61 5 5 12 4 16 -3 3 -7 6 -261 5 -564z"/>
</g>
</svg>
